<svg xmlns="http://www.w3.org/2000/svg" width="32" height="32" viewBox="0 0 8.467 8.467"><g fill="#586597" transform="translate(275.96 -87.715)"><path style="line-height:normal;font-variant-ligatures:normal;font-variant-position:normal;font-variant-caps:normal;font-variant-numeric:normal;font-variant-alternates:normal;font-feature-settings:normal;text-indent:0;text-align:start;text-decoration-line:none;text-decoration-style:solid;text-decoration-color:#000;text-transform:none;text-orientation:mixed;shape-padding:0;isolation:auto;mix-blend-mode:normal" d="m -271.72709,89.566953 c -1.60596,3e-6 -2.91041,1.304396 -2.91041,2.910266 0,1.60587 1.30445,2.910264 2.91041,2.910267 1.60596,3e-6 2.91042,-1.304393 2.91042,-2.910267 0,-1.605874 -1.30446,-2.910269 -2.91042,-2.910266 z" color="#000" font-family="sans-serif" font-weight="400" overflow="visible" white-space="normal"/><path fill="#bcf3d3" style="line-height:normal;font-variant-ligatures:normal;font-variant-position:normal;font-variant-caps:normal;font-variant-numeric:normal;font-variant-alternates:normal;font-feature-settings:normal;text-indent:0;text-align:start;text-decoration-line:none;text-decoration-style:solid;text-decoration-color:#000;text-transform:none;text-orientation:mixed;shape-padding:0;isolation:auto;mix-blend-mode:normal" d="m -271.72709,89.832588 c 1.46296,-2e-6 2.64672,1.181753 2.64672,2.644631 0,1.462878 -1.18376,2.646588 -2.64672,2.646585 -1.46294,-3e-6 -2.64477,-1.183711 -2.64477,-2.646585 0,-1.462874 1.18183,-2.644628 2.64477,-2.644631 z" color="#000" font-family="sans-serif" font-weight="400" overflow="visible" white-space="normal"/><path style="line-height:normal;font-variant-ligatures:normal;font-variant-position:normal;font-variant-caps:normal;font-variant-numeric:normal;font-variant-alternates:normal;font-feature-settings:normal;text-indent:0;text-align:start;text-decoration-line:none;text-decoration-style:solid;text-decoration-color:#000;text-transform:none;text-orientation:mixed;shape-padding:0;isolation:auto;mix-blend-mode:normal" d="m -271.72709,90.09627 c -1.31368,-10e-7 -2.38108,1.067337 -2.38108,2.380949 10e-6,1.313611 1.0674,2.380951 2.38108,2.38095 1.31368,10e-7 2.38107,-1.067339 2.38107,-2.38095 0,-1.313612 -1.06739,-2.38095 -2.38107,-2.380949 z" color="#000" font-family="sans-serif" font-weight="400" overflow="visible" white-space="normal"/><path fill="#d7edf2" style="line-height:normal;font-variant-ligatures:normal;font-variant-position:normal;font-variant-caps:normal;font-variant-numeric:normal;font-variant-alternates:normal;font-feature-settings:normal;text-indent:0;text-align:start;text-decoration-line:none;text-decoration-style:solid;text-decoration-color:#000;text-transform:none;text-orientation:mixed;shape-padding:0;isolation:auto;mix-blend-mode:normal" d="m -271.72709,90.361905 c 1.17067,-10e-7 2.11738,0.944699 2.11738,2.115314 0,1.170615 -0.94671,2.117269 -2.11738,2.117268 -1.17068,10e-7 -2.11542,-0.946653 -2.11542,-2.117268 0,-1.170615 0.94474,-2.115315 2.11542,-2.115314 z" color="#000" font-family="sans-serif" font-weight="400" overflow="visible" white-space="normal"/><path style="line-height:normal;font-variant-ligatures:normal;font-variant-position:normal;font-variant-caps:normal;font-variant-numeric:normal;font-variant-alternates:normal;font-feature-settings:normal;text-indent:0;text-align:start;text-decoration-line:none;text-decoration-style:solid;text-decoration-color:#000;text-transform:none;text-orientation:mixed;shape-padding:0;isolation:auto;mix-blend-mode:normal" d="m -271.72709,91.947903 c -0.29071,3e-6 -0.52934,0.238624 -0.52934,0.529316 0,0.290693 0.23863,0.529314 0.52934,0.529317 0.29071,4e-6 0.52934,-0.238619 0.52934,-0.529317 0,-0.290697 -0.23863,-0.52932 -0.52934,-0.529316 z" color="#000" font-family="sans-serif" font-weight="400" overflow="visible" white-space="normal"/><path fill="#ff9395" style="line-height:normal;font-variant-ligatures:normal;font-variant-position:normal;font-variant-caps:normal;font-variant-numeric:normal;font-variant-alternates:normal;font-feature-settings:normal;text-indent:0;text-align:start;text-decoration-line:none;text-decoration-style:solid;text-decoration-color:#000;text-transform:none;text-orientation:mixed;shape-padding:0;isolation:auto;mix-blend-mode:normal" d="m -271.72709,92.213538 c 0.14771,-2e-6 0.26565,0.115982 0.26565,0.263681 0,0.147699 -0.11794,0.265637 -0.26565,0.265636 -0.14771,-2e-6 -0.2637,-0.11794 -0.2637,-0.265636 0,-0.147696 0.11599,-0.26368 0.2637,-0.263681 z" color="#000" font-family="sans-serif" font-weight="400" overflow="visible" white-space="normal"/><path d="M-271.74271 90.625587a.13231678.13230989 0 0 0-.11525.134771v.126957a.13231678.13230989 0 1 0 .2637 0v-.126957a.13231678.13230989 0 0 0-.14845-.134771zM-271.72904 93.932353a.13231678.13230989 0 0 0-.12892.13477v.128911a.13231678.13230989 0 1 0 .2637 0v-.128911a.13231678.13230989 0 0 0-.13478-.13477zM-272.5924 90.856064a.13231678.13230989 0 0 0-.10743.199227l.0644.111332a.13231678.13230989 0 1 0 .22854-.130865l-.0645-.111332a.13231678.13230989 0 0 0-.1211-.06836zM-270.93795 93.719454a.13231678.13230989 0 0 0-.10939.201179l.0645.111332a.13301144.13300451 0 1 0 .23049-.132817l-.0644-.111333a.13231678.13230989 0 0 0-.1211-.06836zM-273.22527 91.484994a.13231678.13230989 0 0 0-.0547.248056l.11134.06445a.13231678.13230989 0 1 0 .13087-.228525l-.11134-.06445a.13231678.13230989 0 0 0-.0762-.01953zM-270.35978 93.139354a.13231678.13230989 0 0 0-.0566.248056l.11134.06445a.13301252.13300559 0 1 0 .13283-.230477l-.11134-.06445a.13231678.13230989 0 0 0-.0762-.01758zM-273.45771 92.346355a.13231678.13230989 0 0 0 .0137.263682h.12696a.13231678.13230989 0 1 0 0-.263682h-.12696a.13231678.13230989 0 0 0-.0137 0zM-270.15077 92.346355a.13231678.13230989 0 0 0 .0137.263682h.12891a.13231678.13230989 0 1 0 0-.263682h-.12891a.13231678.13230989 0 0 0-.0137 0zM-273.11003 93.139354a.13231678.13230989 0 0 0-.0586.01758l-.11134.06445a.13252635.13251944 0 1 0 .13087.230477l.11134-.06445a.13231678.13230989 0 0 0-.0723-.248056zM-270.24649 91.484994a.13231678.13230989 0 0 0-.0586.01953l-.11134.06445a.13231678.13230989 0 1 0 .13283.228525l.11134-.06445a.13231678.13230989 0 0 0-.0742-.248056zM-272.52012 93.719454a.13231678.13230989 0 0 0-.11525.06836l-.0644.111333a.13231678.13230989 0 1 0 .22853.132817l.0645-.111332a.13231678.13230989 0 0 0-.11329-.201179zM-270.87936 90.856064a.13231678.13230989 0 0 0-.10353.06836l-.0645.111332a.13252678.13251988 0 1 0 .23049.130865l.0644-.111332a.13231678.13230989 0 0 0-.12696-.199227zM-273.86009 89.699771a.13231678.13230989 0 0 0-.0781.03906l-.5274.527364a.13259555.13258864 0 1 0 .18752.187507l.52739-.527364a.13231678.13230989 0 0 0-.10938-.22657zM-269.62338 89.699771a.13231678.13230989 0 0 0-.0781.22657l.52544.527364a.13259444.13258753 0 1 0 .18751-.187507l-.52543-.527364a.13231678.13230989 0 0 0-.10939-.03906zM-272.32285 88.508319c-.2176 0-.39651.178913-.39651.3965 0 .217586.17891.398452.39651.398452h1.19152c.2176 0 .39652-.180866.39652-.398452 0-.217587-.17892-.3965-.39652-.3965z" color="#000" font-family="sans-serif" font-weight="400" overflow="visible" white-space="normal" style="line-height:normal;font-variant-ligatures:normal;font-variant-position:normal;font-variant-caps:normal;font-variant-numeric:normal;font-variant-alternates:normal;font-feature-settings:normal;text-indent:0;text-align:start;text-decoration-line:none;text-decoration-style:solid;text-decoration-color:#000;text-transform:none;text-orientation:mixed;shape-padding:0;isolation:auto;mix-blend-mode:normal"/><path fill="#fbd67e" style="line-height:normal;font-variant-ligatures:normal;font-variant-position:normal;font-variant-caps:normal;font-variant-numeric:normal;font-variant-alternates:normal;font-feature-settings:normal;text-indent:0;text-align:start;text-decoration-line:none;text-decoration-style:solid;text-decoration-color:#000;text-transform:none;text-orientation:mixed;shape-padding:0;isolation:auto;mix-blend-mode:normal" d="m -272.32285,88.773955 h 1.19152 c 0.0756,0 0.13282,0.05528 0.13282,0.130864 0,0.07558 -0.0572,0.132817 -0.13282,0.132817 h -1.19152 c -0.0756,0 -0.13087,-0.05723 -0.13087,-0.132817 0,-0.07558 0.0553,-0.130864 0.13087,-0.130864 z" color="#000" font-family="sans-serif" font-weight="400" overflow="visible" white-space="normal"/><path d="M-271.85796 89.170454v.529317h.2637v-.529317zM-271.74271 91.287721a.13231678.13230989 0 0 0-.11525.132818v.658227a.13231678.13230989 0 1 0 .2637 0v-.658227a.13231678.13230989 0 0 0-.14845-.132818z" color="#000" font-family="sans-serif" font-weight="400" overflow="visible" white-space="normal" style="line-height:normal;font-variant-ligatures:normal;font-variant-position:normal;font-variant-caps:normal;font-variant-numeric:normal;font-variant-alternates:normal;font-feature-settings:normal;text-indent:0;text-align:start;text-decoration-line:none;text-decoration-style:solid;text-decoration-color:#000;text-transform:none;text-orientation:mixed;shape-padding:0;isolation:auto;mix-blend-mode:normal"/></g></svg>